<svg width="600" height="185" viewBox="0 0 600 185" fill="none" xmlns="http://www.w3.org/2000/svg">
<path d="M65.6 118.9C67.1 120.4 71.6 124.9 92.3 124.9C113 124.9 117.5 120.4 119 118.9C120.5 117.4 125 112.9 125 92.2C125 71.5 120.5 67 119 65.5C117.5 64 113 59.5 92.3 59.5C71.6 59.5 67.1 64 65.6 65.5C64.1 67 59.6 71.5 59.6 92.2C59.6 112.9 64.1 117.4 65.6 118.9ZM49.1 49.1C56.3 41.9 73.3 37.3 92.5 37.3C111.7 37.3 128.7 41.9 135.9 49.1C143.1 56.3 147.7 73.3 147.7 92.5C147.7 111.7 143.1 128.7 135.9 135.9C128.7 143.1 111.7 147.7 92.5 147.7C73.3 147.7 56.3 143 49.1 135.9C41.9 128.8 37.3 111.7 37.3 92.5C37.3 73.3 41.9 56.3 49.1 49.1ZM39.6 145.7C49.7 155.8 69.5 161.9 92.5 161.9C115.5 161.9 135.3 155.9 145.4 145.7C155.5 135.6 161.6 115.8 161.6 92.8C161.6 69.8 155.6 50 145.4 39.9C135.3 29.8 115.5 23.7 92.5 23.7C69.5 23.7 49.7 29.7 39.6 39.9C29.5 50.1 23.4 69.8 23.4 92.8C23.5 115.8 29.5 135.6 39.6 145.7ZM0 92.5C0 41.4 41.4 0 92.5 0C143.1 0 184.3 40.7 185 91.2C185.7 142.9 143 185.6 91.3 184.9C40.7 184.2 0 143.1 0 92.5ZM79.8 74.6H105.1C108 74.6 110.3 76.9 110.3 79.8V105.1C110.3 108 108 110.3 105.1 110.3H79.8C76.9 110.3 74.6 108 74.6 105.1V79.8C74.6 76.9 76.9 74.6 79.8 74.6Z" fill="#E9530E"/>
<path d="M248.3 65.2H228.1V121.9H248.3V65.2Z" fill="#263746"/>
<path d="M259.1 121.9V65.2H275.1L277.6 71.4C282.3 66.4 288.5 63.8 296.2 63.8C303 63.8 308.3 65.9 312.6 70.1C316.8 74.2 318.9 79.5 318.9 86V121.9H298.7V89.4C298.7 84.2 294.9 80.3 289.8 80.3C283.5 80.3 279.3 84.8 279.3 91.5V121.8L259.1 121.9Z" fill="#263746"/>
<path d="M323.5 80.4V65.2H333V59.9C333 53.8 335 49 338.8 45.3C342.8 41.6 348 39.8 354.3 39.8C359.1 39.8 363.8 40.4 368.4 41.6L365.9 56.5C363.7 56.1 361.5 55.9 359.3 55.8C355.6 55.8 353.2 58.1 353.2 61.9V65.1H364.9V80.4H353.2V121.9H333V80.4H323.5Z" fill="#263746"/>
<path d="M399.8 107.7C406.7 107.7 411.6 101.9 411.6 93.6C411.6 85.2 406.7 79.4 399.8 79.4C392.9 79.4 388.1 85.2 388.1 93.6C388.2 101.8 393 107.7 399.8 107.7ZM376.6 72.1C382.7 66.5 390.4 63.7 399.9 63.7C409.4 63.7 417.2 66.5 423.2 72.1C429.3 77.6 432.3 84.7 432.3 93.5C432.3 102.2 429.3 109.3 423.2 114.9C417.2 120.4 409.4 123.2 399.9 123.2C390.4 123.2 382.7 120.4 376.6 114.9C370.5 109.3 367.5 102.2 367.5 93.5C367.5 84.9 370.5 77.8 376.6 72.1Z" fill="#263746"/>
<path d="M457.9 96.6C457.9 102.9 462 107.5 468.1 107.5C474.6 107.5 479.3 101.8 479.3 93.6C479.3 85.4 474.6 79.6 468.1 79.6C462 79.6 457.9 84.2 457.9 90.6V96.6ZM438.1 121.9V41.2H458.3V69.2C462.6 65.7 468 63.7 473.5 63.8C481.2 63.8 487.5 66.6 492.4 72.2C497.3 77.7 499.8 84.8 499.8 93.6C499.8 102.3 497.3 109.4 492.4 115C487.5 120.5 481.2 123.3 473.5 123.3C466.6 123.3 461 121.1 456.7 116.7L454.2 122L438.1 121.9Z" fill="#263746"/>
<path d="M507.2 65.2H527.4V121.9H507.2V65.2ZM517.3 38.7C524.2 38.7 528.9 43.5 528.9 50.3C528.9 56.8 524.2 61.8 517.3 61.8C510.8 61.8 505.8 56.9 505.8 50.3C505.8 43.5 510.8 38.7 517.3 38.7Z" fill="#263746"/>
<path d="M558.1 96.6C558.1 102.9 562.2 107.5 568.3 107.5C574.8 107.5 579.5 101.8 579.5 93.6C579.5 85.4 574.8 79.6 568.3 79.6C562.2 79.6 558.1 84.2 558.1 90.6V96.6ZM538.3 145.7V65.1H554.3L556.8 70.4C561.2 65.9 566.8 63.8 573.6 63.8C581.3 63.8 587.6 66.6 592.5 72.2C597.4 77.7 599.9 84.8 599.9 93.6C599.9 102.3 597.4 109.4 592.5 115C587.6 120.5 581.3 123.3 573.6 123.3C568 123.3 562.7 121.4 558.4 117.9V145.7H538.3Z" fill="#263746"/>
<path d="M248.3 39H228.1V59.2H248.3V39Z" fill="#263746"/>
</svg>
